<svg xmlns="http://www.w3.org/2000/svg" xmlns:xlink="http://www.w3.org/1999/xlink" viewBox="0,0,256,256" width="50px" height="50px" fill-rule="nonzero"><g transform="translate(92.16,92.16) scale(0.28,0.28)"><g fill="#050000" fill-rule="nonzero" stroke="none" stroke-width="1" stroke-linecap="butt" stroke-linejoin="miter" stroke-miterlimit="10" stroke-dasharray="" stroke-dashoffset="0" font-family="none" font-weight="none" font-size="none" text-anchor="none" style="mix-blend-mode: normal"><path d="M-329.14286,585.14286v-914.28571h914.28571v914.28571z" id="bgRectangle"></path></g><g fill="#ffffff" fill-rule="nonzero" stroke="none" stroke-width="1" stroke-linecap="butt" stroke-linejoin="miter" stroke-miterlimit="10" stroke-dasharray="" stroke-dashoffset="0" font-family="none" font-weight="none" font-size="none" text-anchor="none" style="mix-blend-mode: normal"><g transform="translate(-102.4,-91.98) scale(5.12,5.12)"><path d="M25,3c-12.13844,0 -22,9.86156 -22,22c0,11.01913 8.12753,20.13835 18.71289,21.72852l1.14844,0.17383v-17.33594h-5.19727v-3.51953h5.19727v-4.67383c0,-2.87808 0.69065,-4.77363 1.83398,-5.96289c1.14334,-1.18926 2.83269,-1.78906 5.18359,-1.78906c1.87981,0 2.61112,0.1139 3.30664,0.19922v2.88086h-2.44727c-1.38858,0 -2.52783,0.77473 -3.11914,1.80664c-0.59131,1.03191 -0.77539,2.264 -0.77539,3.51953v4.01758h6.12305l-0.54492,3.51953h-5.57812v17.36523l1.13477,-0.1543c10.73582,-1.45602 19.02148,-10.64855 19.02148,-21.77539c0,-12.13844 -9.86156,-22 -22,-22zM25,5c11.05756,0 20,8.94244 20,20c0,9.72979 -6.9642,17.7318 -16.15625,19.5332v-12.96875h5.29297l1.16211,-7.51953h-6.45508v-2.01758c0,-1.03747 0.18982,-1.96705 0.50977,-2.52539c0.31994,-0.55834 0.62835,-0.80078 1.38477,-0.80078h4.44727v-6.69141l-0.86719,-0.11719c-0.59979,-0.08116 -1.96916,-0.27148 -4.43945,-0.27148c-2.7031,0 -5.02334,0.73635 -6.625,2.40234c-1.60166,1.66599 -2.39258,4.14669 -2.39258,7.34961v2.67383h-5.19727v7.51953h5.19727v12.9043c-9.04433,-1.91589 -15.86133,-9.84626 -15.86133,-19.4707c0,-11.05756 8.94244,-20 20,-20z"></path></g></g></g></svg>